<?xml version="1.0" encoding="UTF-8" standalone="no"?>
<!-- Created with Inkscape (http://www.inkscape.org/) -->

<svg
   xmlns:dc="http://purl.org/dc/elements/1.1/"
   xmlns:cc="http://creativecommons.org/ns#"
   xmlns:rdf="http://www.w3.org/1999/02/22-rdf-syntax-ns#"
   xmlns:svg="http://www.w3.org/2000/svg"
   xmlns="http://www.w3.org/2000/svg"
   xmlns:xlink="http://www.w3.org/1999/xlink"
   xmlns:sodipodi="http://sodipodi.sourceforge.net/DTD/sodipodi-0.dtd"
   xmlns:inkscape="http://www.inkscape.org/namespaces/inkscape"
   width="128"
   height="128"
   id="svg3257"
   version="1.1"
   inkscape:version="0.48.1 "
   sodipodi:docname="logos.svg"
   inkscape:export-filename="C:\Code\BlitzURL\icon_webstore.png"
   inkscape:export-xdpi="11.25"
   inkscape:export-ydpi="11.25">
  <defs
     id="defs3259">
    <linearGradient
       id="linearGradient3828">
      <stop
         style="stop-color:#000000;stop-opacity:1;"
         offset="0"
         id="stop3830" />
      <stop
         style="stop-color:#000000;stop-opacity:0;"
         offset="1"
         id="stop3832" />
    </linearGradient>
    <filter
       color-interpolation-filters="sRGB"
       inkscape:collect="always"
       id="filter3882"
       x="-0.11847362"
       width="1.2369472"
       y="-0.12156623"
       height="1.2431325">
      <feGaussianBlur
         inkscape:collect="always"
         stdDeviation="8.7631302"
         id="feGaussianBlur3884" />
    </filter>
    <filter
       color-interpolation-filters="sRGB"
       inkscape:collect="always"
       id="filter3870">
      <feGaussianBlur
         inkscape:collect="always"
         stdDeviation="1.4317689"
         id="feGaussianBlur3872" />
    </filter>
    <filter
       color-interpolation-filters="sRGB"
       inkscape:collect="always"
       id="filter3866">
      <feGaussianBlur
         inkscape:collect="always"
         stdDeviation="0.91527386"
         id="feGaussianBlur3868" />
    </filter>
    <filter
       color-interpolation-filters="sRGB"
       inkscape:collect="always"
       id="filter3944"
       x="-0.093524113"
       width="1.1870482"
       y="-0.1673854"
       height="1.3347708">
      <feGaussianBlur
         inkscape:collect="always"
         stdDeviation="6.3079233"
         id="feGaussianBlur3946" />
    </filter>
    <filter
       color-interpolation-filters="sRGB"
       inkscape:collect="always"
       id="filter3894"
       x="-0.25884625"
       width="1.5176924"
       y="-0.59092641"
       height="2.1818528">
      <feGaussianBlur
         inkscape:collect="always"
         stdDeviation="1.2903798"
         id="feGaussianBlur3896" />
    </filter>
    <filter
       color-interpolation-filters="sRGB"
       inkscape:collect="always"
       id="filter3900"
       x="-0.23460063"
       width="1.4692013"
       y="-0.14601634"
       height="1.2920327">
      <feGaussianBlur
         inkscape:collect="always"
         stdDeviation="7.1588444"
         id="feGaussianBlur3902" />
    </filter>
    <filter
       color-interpolation-filters="sRGB"
       inkscape:collect="always"
       id="filter3906"
       x="-0.27524889"
       width="1.5504978"
       y="-0.13372494"
       height="1.2674499">
      <feGaussianBlur
         inkscape:collect="always"
         stdDeviation="4.5763693"
         id="feGaussianBlur3908" />
    </filter>
    <filter
       color-interpolation-filters="sRGB"
       inkscape:collect="always"
       id="filter4147"
       x="-0.041289814"
       width="1.0825796"
       y="-0.66220033"
       height="2.3244007">
      <feGaussianBlur
         inkscape:collect="always"
         stdDeviation="1.5022405"
         id="feGaussianBlur4149" />
    </filter>
    <linearGradient
       inkscape:collect="always"
       xlink:href="#linearGradient3828"
       id="linearGradient4212"
       gradientUnits="userSpaceOnUse"
       x1="430.86566"
       y1="395.39072"
       x2="425.30286"
       y2="500.61383" />
    <linearGradient
       inkscape:collect="always"
       xlink:href="#linearGradient3828"
       id="linearGradient4273"
       gradientUnits="userSpaceOnUse"
       x1="430.86566"
       y1="395.39072"
       x2="425.30286"
       y2="500.61383" />
  </defs>
  <sodipodi:namedview
     id="base"
     pagecolor="#ffffff"
     bordercolor="#666666"
     borderopacity="1.0"
     inkscape:pageopacity="0.0"
     inkscape:pageshadow="2"
     inkscape:zoom="4"
     inkscape:cx="49.621457"
     inkscape:cy="57.974863"
     inkscape:document-units="px"
     inkscape:current-layer="layer2"
     showgrid="false"
     inkscape:window-width="1842"
     inkscape:window-height="1178"
     inkscape:window-x="54"
     inkscape:window-y="-8"
     inkscape:window-maximized="1" />
  <metadata
     id="metadata3262">
    <rdf:RDF>
      <cc:Work
         rdf:about="">
        <dc:format>image/svg+xml</dc:format>
        <dc:type
           rdf:resource="http://purl.org/dc/dcmitype/StillImage" />
        <dc:title></dc:title>
      </cc:Work>
    </rdf:RDF>
  </metadata>
  <g
     inkscape:groupmode="layer"
     id="layer2"
     inkscape:label="Webstore_Bleed_Area"
     style="display:none"
     sodipodi:insensitive="true">
    <rect
       style="fill:#808080;fill-opacity:1;fill-rule:nonzero;stroke:none"
       id="rect4252"
       width="96"
       height="96"
       x="16"
       y="16" />
  </g>
  <g
     inkscape:label="Extension_Icon"
     inkscape:groupmode="layer"
     id="layer1"
     transform="translate(0,-924.36218)"
     style="display:none"
     sodipodi:insensitive="true">
    <g
       id="g4193"
       transform="matrix(1.3088894,0,0,1.3088894,-21.636698,-304.04457)">
      <path
         transform="matrix(0.20421527,0,0,0.20421527,-20.559921,920.41546)"
         d="m 633.19814,316.9549 a 215.63637,215.63637 0 1 1 -431.27274,0 215.63637,215.63637 0 1 1 431.27274,0 z"
         sodipodi:ry="215.63637"
         sodipodi:rx="215.63637"
         sodipodi:cy="316.9549"
         sodipodi:cx="417.56177"
         id="path3212"
         style="fill:#eeeeee;fill-opacity:1;stroke:none;display:inline"
         sodipodi:type="arc" />
      <g
         id="g3997"
         style="display:inline"
         transform="matrix(0.22502702,0,0,0.22502702,-27.29309,919.5397)">
        <path
           sodipodi:nodetypes="sssss"
           inkscape:connector-curvature="0"
           id="path3960"
           d="m 324.72195,301.86718 c 7.62743,2.53539 9.79673,6.8627 11.7618,12.59278 2.97418,8.67265 -9.97979,14.78195 -11.8657,14.74758 -6.30842,-0.11501 -4.79703,-12.47371 -4.90091,-13.25826 -0.63292,-4.78055 3.25594,-14.66343 5.00481,-14.0821 z"
           style="opacity:0.53497943;fill:#ffffff;fill-opacity:1;stroke:none" />
        <path
           style="fill:#232323;fill-opacity:1;stroke:none"
           d="m 610.79821,365.00561 c -3.01373,-10.09241 -29.84026,-24.16094 -56.12951,-31.45814 -15.2388,-4.22989 -19.52411,-22.75721 -24.36679,-36.21868 -7.51903,-20.90104 -3.56213,-41.93493 -9.13915,-63.43578 -11.529,-44.4473 -40.64978,-125.25856 -44.83652,-126.6811 -30.13293,-10.238288 -32.77443,89.08598 -57.33203,100.64199 -11.49691,5.41008 -18.14808,10.89065 -28.229,3.15614 -25.68999,-19.71047 -54.29603,-80.73655 -64.82231,-73.21221 -8.4624,6.04907 -0.40956,59.30291 0.79715,73.58895 1.45902,17.27297 9.7723,15.72161 6.97707,42.03254 -1.71097,16.10505 -21.61779,18.66329 -12.55701,46.93637 13.00674,40.58599 -38.57839,46.43661 -45.05864,84.85402 -1.87269,11.10197 33.97893,63.73713 64.08833,53.89765 12.09643,-3.95301 27.52679,-14.10796 42.82631,-13.04161 11.6862,0.81451 25.30881,4.52506 30.94591,14.79412 6.92964,12.62366 -14.79508,37.48181 -2.78123,45.42183 63.62087,42.04732 221.43757,-48.20439 199.61742,-121.27609 z"
           id="path2996"
           inkscape:connector-curvature="0"
           sodipodi:nodetypes="sssssssssssssssss" />
        <path
           sodipodi:nodetypes="sssss"
           inkscape:connector-curvature="0"
           id="path3800"
           d="m 370.73398,312.22765 c 0.5363,-9.25979 4.70711,-12.97548 10.50226,-16.88456 8.77117,-5.91649 19.46575,6.68443 19.99336,8.79615 1.76485,7.06378 -10.67819,10.58272 -11.52122,10.93388 -5.13688,2.13978 -19.09735,-0.72231 -18.9744,-2.84547 z"
           style="opacity:0.53497943;fill:#ffffff;fill-opacity:1;stroke:none" />
        <path
           style="opacity:0.53497943;fill:#ffffff;fill-opacity:1;stroke:none"
           d="m 372.60715,311.34897 c 0.46474,-8.02432 4.07907,-11.24427 9.10103,-14.63178 7.60089,-5.1271 16.86857,5.79257 17.32579,7.62254 1.52938,6.12132 -9.25348,9.17075 -9.98402,9.47506 -4.45151,1.85429 -16.54935,-0.62594 -16.4428,-2.46582 z"
           id="path3798"
           inkscape:connector-curvature="0"
           sodipodi:nodetypes="sssss" />
        <path
           style="opacity:0.71666721;fill:url(#linearGradient4212);fill-opacity:1;stroke:none;filter:url(#filter3882)"
           d="m 522.14286,284.50504 c -13.67201,10.42432 -25.52303,69.16592 -71.63163,102.76688 0,0 -10.54294,9.33744 -41.40002,8.06606 -5.86316,-0.24158 -66.8116,-10.08701 -64.42047,-8.53603 2.39114,1.55098 16.8851,19.55739 15.05764,21.5562 -25.70048,28.11019 10.03419,84.28557 89.28151,68.49717 110.19158,-21.95341 74.62266,-95.15051 70.72501,-96.32888 -32.71055,-9.88929 1.91044,-96.53871 2.38796,-96.0214 z"
           id="path3802"
           inkscape:connector-curvature="0"
           sodipodi:nodetypes="ccsssssc"
           transform="matrix(1.0035991,-0.46941137,0.46941137,1.0035991,-135.4959,199.15239)" />
        <path
           sodipodi:type="arc"
           style="opacity:0.46913578;fill:#0000fe;fill-opacity:1;stroke:none"
           id="path3812"
           sodipodi:cx="384.86813"
           sodipodi:cy="286.9191"
           sodipodi:rx="5.177032"
           sodipodi:ry="5.177032"
           d="m 390.04517,286.9191 a 5.177032,5.177032 0 1 1 -10.35407,0 5.177032,5.177032 0 1 1 10.35407,0 z"
           transform="matrix(1.1749453,-0.54955477,0.65832081,1.4074865,-256.08786,113.16358)" />
        <path
           style="opacity:0.28806589;fill:#a05a2c;stroke:none;filter:url(#filter3870)"
           d="m 499.52043,287.67671 c 18.67639,-40.29196 25.16247,-78.5522 27.7792,-116.16755 -22.81405,19.28427 -44.03955,30.62579 -73.23606,81.82236 8.9901,17.61059 11.02275,42.17862 45.45686,34.34519 z"
           id="path3814"
           inkscape:connector-curvature="0"
           sodipodi:nodetypes="cccc"
           transform="matrix(1.0035991,-0.46941137,0.46941137,1.0035991,-135.4959,199.15239)" />
        <path
           style="opacity:0.28800001;fill:#a05a2c;fill-opacity:1;stroke:none;filter:url(#filter3866)"
           d="m 398.25265,212.92542 c -18.41998,0.41864 -19.86514,3.83284 -28.03174,6.06091 8.92301,-30.18099 17.84603,-63.95891 26.76904,-78.7919 0,-12.50116 12.30079,11.25837 13.13198,51.51778 0.13251,6.41798 -6.07083,22.97006 -11.86928,21.21321 z"
           id="path3816"
           inkscape:connector-curvature="0"
           sodipodi:nodetypes="cccsc"
           transform="matrix(1.0035991,-0.46941137,0.46941137,1.0035991,-135.4959,199.15239)" />
        <path
           style="opacity:0.19341562;fill:#5a5a5a;fill-opacity:1;stroke:none;filter:url(#filter3944)"
           d="m 345.97725,239.18938 c 13.67884,27.61153 52.88833,6.90531 86.62058,-4.29315 22.57491,-6.54391 22.86825,-12.48636 27.52665,-16.41497 -19.97232,5.57652 -37.70758,-2.70823 -60.10407,-2.52539 -23.9712,1.78769 -40.09685,11.42093 -54.04316,23.23351 z"
           id="path3818"
           inkscape:connector-curvature="0"
           sodipodi:nodetypes="ccccc"
           transform="matrix(1.0035991,-0.46941137,0.46941137,1.0035991,-135.4959,199.15239)" />
        <path
           style="opacity:0.35;fill:#464646;fill-opacity:1;stroke:none"
           d="m 280.76663,374.55295 c 3.67357,0.47205 21.07458,-14.55531 34.0148,6.02176 -0.46175,6.03471 7.20762,7.96164 -13.65364,24.30201 -9.00804,2.90437 -12.27214,0.36626 -21.73693,-9.18134 -4.19688,-7.88075 -4.3874,-11.86825 1.37577,-21.14243 z"
           id="path3836"
           inkscape:connector-curvature="0"
           sodipodi:nodetypes="ccccc" />
        <path
           style="opacity:0.2;fill:#ffffff;fill-opacity:1;stroke:none;filter:url(#filter3894)"
           d="m 267.85714,309.1479 c 0,0 2.50203,-3.61904 4.46429,-4.10715 2.5079,-0.62384 11.86259,3.21074 11.86259,3.21074 -2.87669,2.10354 -13.81984,6.82226 -16.32688,0.89641 z"
           id="path3848"
           inkscape:connector-curvature="0"
           sodipodi:nodetypes="cscc"
           transform="matrix(1.0035991,-0.46941137,0.46941137,1.0035991,-135.4959,199.15239)" />
        <path
           sodipodi:nodetypes="cccc"
           inkscape:connector-curvature="0"
           id="path3898"
           d="m 499.52043,287.67671 c 18.67639,-40.29196 53.51858,-114.64179 48.40183,-144.52366 -34.03636,19.28427 -65.64271,58.9819 -93.85869,110.17847 8.9901,17.61059 11.02275,42.17862 45.45686,34.34519 z"
           style="opacity:0.28806589;fill:#a05a2c;stroke:none;filter:url(#filter3900)"
           transform="matrix(0.5561709,-0.26013668,0.26013668,0.5561709,132.94713,227.16035)" />
        <path
           sodipodi:nodetypes="cccsc"
           inkscape:connector-curvature="0"
           id="path3904"
           d="m 398.25265,212.92542 c -18.41998,0.41864 -19.86514,3.83284 -28.03174,6.06091 8.92301,-30.18099 17.84603,-63.95891 26.76904,-78.7919 0,-12.50116 12.30079,11.25837 13.13198,51.51778 0.13251,6.41798 -6.07083,22.97006 -11.86928,21.21321 z"
           style="opacity:0.28800001;fill:#a05a2c;fill-opacity:1;stroke:none;filter:url(#filter3906)"
           transform="matrix(0.63486405,-0.29694368,0.29694368,0.63486405,44.424456,208.93515)" />
        <path
           style="opacity:0.74074073;fill:none;stroke:#000000;stroke-width:2;stroke-linecap:butt;stroke-linejoin:miter;stroke-miterlimit:4;stroke-opacity:1;stroke-dasharray:none;filter:url(#filter4147)"
           d="m 278.30076,364.3731 c 51.03215,4.82018 73.76991,4.85409 87.31881,-2.03924"
           id="path3948"
           inkscape:connector-curvature="0"
           sodipodi:nodetypes="cc"
           transform="matrix(1.0035991,-0.46941137,0.46941137,1.0035991,-135.4959,199.15239)" />
        <path
           style="fill:#7bb842;fill-opacity:1;stroke:none"
           d="m 410.21432,438.73777 c 1.68096,8.99645 1.5313,10.79629 1.99004,15.77912 50.26196,7.2784 113.92053,-19.19424 149.2965,-121.03798 l -16.0073,-5.98867 c -26.81082,75.02125 -68.3177,121.13355 -135.27924,111.24753 z"
           id="path4151"
           inkscape:connector-curvature="0"
           sodipodi:nodetypes="ccccc" />
      </g>
    </g>
  </g>
  <g
     style="display:inline"
     transform="translate(0,-924.36218)"
     id="g4214"
     inkscape:groupmode="layer"
     inkscape:label="Webstore_Icon"
     sodipodi:insensitive="true">
    <g
       id="g4220"
       style="display:inline"
       transform="matrix(0.24345256,0,0,0.24345256,-42.352583,914.42604)">
      <path
         sodipodi:nodetypes="sssss"
         inkscape:connector-curvature="0"
         id="path4222"
         d="m 324.72195,301.86718 c 7.62743,2.53539 9.79673,6.8627 11.7618,12.59278 2.97418,8.67265 -9.97979,14.78195 -11.8657,14.74758 -6.30842,-0.11501 -4.79703,-12.47371 -4.90091,-13.25826 -0.63292,-4.78055 3.25594,-14.66343 5.00481,-14.0821 z"
         style="opacity:0.53497943;fill:#ffffff;fill-opacity:1;stroke:none" />
      <path
         style="fill:#232323;fill-opacity:1;stroke:none"
         d="m 610.79821,365.00561 c -3.01373,-10.09241 -29.84026,-24.16094 -56.12951,-31.45814 -15.2388,-4.22989 -19.52411,-22.75721 -24.36679,-36.21868 -7.51903,-20.90104 -3.56213,-41.93493 -9.13915,-63.43578 -11.529,-44.4473 -40.64978,-125.25856 -44.83652,-126.6811 -30.13293,-10.238288 -32.77443,89.08598 -57.33203,100.64199 -11.49691,5.41008 -18.14808,10.89065 -28.229,3.15614 -25.68999,-19.71047 -54.29603,-80.73655 -64.82231,-73.21221 -8.4624,6.04907 -0.40956,59.30291 0.79715,73.58895 1.45902,17.27297 9.7723,15.72161 6.97707,42.03254 -1.71097,16.10505 -21.61779,18.66329 -12.55701,46.93637 13.00674,40.58599 -38.57839,46.43661 -45.05864,84.85402 -1.87269,11.10197 33.97893,63.73713 64.08833,53.89765 12.09643,-3.95301 27.52679,-14.10796 42.82631,-13.04161 11.6862,0.81451 25.30881,4.52506 30.94591,14.79412 6.92964,12.62366 -14.79508,37.48181 -2.78123,45.42183 63.62087,42.04732 221.43757,-48.20439 199.61742,-121.27609 z"
         id="path4224"
         inkscape:connector-curvature="0"
         sodipodi:nodetypes="sssssssssssssssss" />
      <path
         sodipodi:nodetypes="sssss"
         inkscape:connector-curvature="0"
         id="path4226"
         d="m 370.73398,312.22765 c 0.5363,-9.25979 4.70711,-12.97548 10.50226,-16.88456 8.77117,-5.91649 19.46575,6.68443 19.99336,8.79615 1.76485,7.06378 -10.67819,10.58272 -11.52122,10.93388 -5.13688,2.13978 -19.09735,-0.72231 -18.9744,-2.84547 z"
         style="opacity:0.53497943;fill:#ffffff;fill-opacity:1;stroke:none" />
      <path
         style="opacity:0.53497943;fill:#ffffff;fill-opacity:1;stroke:none"
         d="m 372.60715,311.34897 c 0.46474,-8.02432 4.07907,-11.24427 9.10103,-14.63178 7.60089,-5.1271 16.86857,5.79257 17.32579,7.62254 1.52938,6.12132 -9.25348,9.17075 -9.98402,9.47506 -4.45151,1.85429 -16.54935,-0.62594 -16.4428,-2.46582 z"
         id="path4228"
         inkscape:connector-curvature="0"
         sodipodi:nodetypes="sssss" />
      <path
         style="opacity:0.71666721;fill:url(#linearGradient4273);fill-opacity:1;stroke:none;filter:url(#filter3882)"
         d="m 522.14286,284.50504 c -13.67201,10.42432 -25.52303,69.16592 -71.63163,102.76688 0,0 -10.54294,9.33744 -41.40002,8.06606 -5.86316,-0.24158 -66.8116,-10.08701 -64.42047,-8.53603 2.39114,1.55098 16.8851,19.55739 15.05764,21.5562 -25.70048,28.11019 10.03419,84.28557 89.28151,68.49717 110.19158,-21.95341 74.62266,-95.15051 70.72501,-96.32888 -32.71055,-9.88929 1.91044,-96.53871 2.38796,-96.0214 z"
         id="path4230"
         inkscape:connector-curvature="0"
         sodipodi:nodetypes="ccsssssc"
         transform="matrix(1.0035991,-0.46941137,0.46941137,1.0035991,-135.4959,199.15239)" />
      <path
         sodipodi:type="arc"
         style="opacity:0.46913578;fill:#0000fe;fill-opacity:1;stroke:none"
         id="path4232"
         sodipodi:cx="384.86813"
         sodipodi:cy="286.9191"
         sodipodi:rx="5.177032"
         sodipodi:ry="5.177032"
         d="m 390.04517,286.9191 a 5.177032,5.177032 0 1 1 -10.35407,0 5.177032,5.177032 0 1 1 10.35407,0 z"
         transform="matrix(1.1749453,-0.54955477,0.65832081,1.4074865,-256.08786,113.16358)" />
      <path
         style="opacity:0.28806589;fill:#a05a2c;stroke:none;filter:url(#filter3870)"
         d="m 499.52043,287.67671 c 18.67639,-40.29196 25.16247,-78.5522 27.7792,-116.16755 -22.81405,19.28427 -44.03955,30.62579 -73.23606,81.82236 8.9901,17.61059 11.02275,42.17862 45.45686,34.34519 z"
         id="path4234"
         inkscape:connector-curvature="0"
         sodipodi:nodetypes="cccc"
         transform="matrix(1.0035991,-0.46941137,0.46941137,1.0035991,-135.4959,199.15239)" />
      <path
         style="opacity:0.28800001;fill:#a05a2c;fill-opacity:1;stroke:none;filter:url(#filter3866)"
         d="m 398.25265,212.92542 c -18.41998,0.41864 -19.86514,3.83284 -28.03174,6.06091 8.92301,-30.18099 17.84603,-63.95891 26.76904,-78.7919 0,-12.50116 12.30079,11.25837 13.13198,51.51778 0.13251,6.41798 -6.07083,22.97006 -11.86928,21.21321 z"
         id="path4236"
         inkscape:connector-curvature="0"
         sodipodi:nodetypes="cccsc"
         transform="matrix(1.0035991,-0.46941137,0.46941137,1.0035991,-135.4959,199.15239)" />
      <path
         style="opacity:0.19341562;fill:#5a5a5a;fill-opacity:1;stroke:none;filter:url(#filter3944)"
         d="m 345.97725,239.18938 c 13.67884,27.61153 52.88833,6.90531 86.62058,-4.29315 22.57491,-6.54391 22.86825,-12.48636 27.52665,-16.41497 -19.97232,5.57652 -37.70758,-2.70823 -60.10407,-2.52539 -23.9712,1.78769 -40.09685,11.42093 -54.04316,23.23351 z"
         id="path4238"
         inkscape:connector-curvature="0"
         sodipodi:nodetypes="ccccc"
         transform="matrix(1.0035991,-0.46941137,0.46941137,1.0035991,-135.4959,199.15239)" />
      <path
         style="opacity:0.35;fill:#464646;fill-opacity:1;stroke:none"
         d="m 280.76663,374.55295 c 3.67357,0.47205 21.07458,-14.55531 34.0148,6.02176 -0.46175,6.03471 7.20762,7.96164 -13.65364,24.30201 -9.00804,2.90437 -12.27214,0.36626 -21.73693,-9.18134 -4.19688,-7.88075 -4.3874,-11.86825 1.37577,-21.14243 z"
         id="path4240"
         inkscape:connector-curvature="0"
         sodipodi:nodetypes="ccccc" />
      <path
         style="opacity:0.2;fill:#ffffff;fill-opacity:1;stroke:none;filter:url(#filter3894)"
         d="m 267.85714,309.1479 c 0,0 2.50203,-3.61904 4.46429,-4.10715 2.5079,-0.62384 11.86259,3.21074 11.86259,3.21074 -2.87669,2.10354 -13.81984,6.82226 -16.32688,0.89641 z"
         id="path4242"
         inkscape:connector-curvature="0"
         sodipodi:nodetypes="cscc"
         transform="matrix(1.0035991,-0.46941137,0.46941137,1.0035991,-135.4959,199.15239)" />
      <path
         sodipodi:nodetypes="cccc"
         inkscape:connector-curvature="0"
         id="path4244"
         d="m 499.52043,287.67671 c 18.67639,-40.29196 53.51858,-114.64179 48.40183,-144.52366 -34.03636,19.28427 -65.64271,58.9819 -93.85869,110.17847 8.9901,17.61059 11.02275,42.17862 45.45686,34.34519 z"
         style="opacity:0.28806589;fill:#a05a2c;stroke:none;filter:url(#filter3900)"
         transform="matrix(0.5561709,-0.26013668,0.26013668,0.5561709,132.94713,227.16035)" />
      <path
         sodipodi:nodetypes="cccsc"
         inkscape:connector-curvature="0"
         id="path4246"
         d="m 398.25265,212.92542 c -18.41998,0.41864 -19.86514,3.83284 -28.03174,6.06091 8.92301,-30.18099 17.84603,-63.95891 26.76904,-78.7919 0,-12.50116 12.30079,11.25837 13.13198,51.51778 0.13251,6.41798 -6.07083,22.97006 -11.86928,21.21321 z"
         style="opacity:0.28800001;fill:#a05a2c;fill-opacity:1;stroke:none;filter:url(#filter3906)"
         transform="matrix(0.63486405,-0.29694368,0.29694368,0.63486405,44.424456,208.93515)" />
      <path
         style="opacity:0.74074073;fill:none;stroke:#000000;stroke-width:2;stroke-linecap:butt;stroke-linejoin:miter;stroke-miterlimit:4;stroke-opacity:1;stroke-dasharray:none;filter:url(#filter4147)"
         d="m 278.30076,364.3731 c 51.03215,4.82018 73.76991,4.85409 87.31881,-2.03924"
         id="path4248"
         inkscape:connector-curvature="0"
         sodipodi:nodetypes="cc"
         transform="matrix(1.0035991,-0.46941137,0.46941137,1.0035991,-135.4959,199.15239)" />
      <path
         style="fill:#7bb842;fill-opacity:1;stroke:none"
         d="m 410.21432,438.73777 c 1.68096,8.99645 1.5313,10.79629 1.99004,15.77912 50.26196,7.2784 113.92053,-19.19424 149.2965,-121.03798 l -16.0073,-5.98867 c -26.81082,75.02125 -68.3177,121.13355 -135.27924,111.24753 z"
         id="path4250"
         inkscape:connector-curvature="0"
         sodipodi:nodetypes="ccccc" />
    </g>
  </g>
</svg>
